<svg width="60" height="60" viewBox="0 0 60 60" fill="none" xmlns="http://www.w3.org/2000/svg">
<path d="M48.7501 11.25V48.75C48.7501 49.1209 48.6401 49.4834 48.4341 49.7917C48.2281 50.1001 47.9352 50.3404 47.5926 50.4823C47.25 50.6243 46.873 50.6614 46.5093 50.589C46.1455 50.5167 45.8114 50.3381 45.5492 50.0759L30.0001 34.5265V48.75C30.0001 49.1209 29.8901 49.4834 29.6841 49.7917C29.4781 50.1001 29.1852 50.3404 28.8426 50.4823C28.5 50.6243 28.123 50.6614 27.7593 50.589C27.3955 50.5167 27.0614 50.3381 26.7992 50.0759L8.04921 31.3259C7.87509 31.1518 7.73697 30.9451 7.64274 30.7176C7.5485 30.4901 7.5 30.2462 7.5 30C7.5 29.7538 7.5485 29.5099 7.64274 29.2825C7.73697 29.055 7.87509 28.8483 8.04921 28.6742L26.7992 9.92415C27.0614 9.66191 27.3955 9.48332 27.7593 9.41097C28.123 9.33862 28.5 9.37575 28.8426 9.51767C29.1852 9.65959 29.4781 9.89992 29.6841 10.2083C29.8901 10.5166 30.0001 10.8792 30.0001 11.25V25.4735L45.5492 9.92415C45.8114 9.66191 46.1455 9.48332 46.5093 9.41097C46.873 9.33862 47.25 9.37575 47.5926 9.51767C47.9352 9.65959 48.2281 9.89992 48.4341 10.2083C48.6401 10.5166 48.7501 10.8792 48.7501 11.25Z" fill="#F8F8F8"/>
</svg>
