<svg width="60" height="60" viewBox="0 0 60 60" fill="none" xmlns="http://www.w3.org/2000/svg">
<path d="M51.9509 31.3259L33.2009 50.0759C32.9386 50.3381 32.6045 50.5167 32.2408 50.589C31.8771 50.6614 31.5001 50.6243 31.1575 50.4823C30.8148 50.3404 30.522 50.1001 30.316 49.7917C30.1099 49.4834 30 49.1209 30 48.75V34.5265L14.4509 50.0759C14.1886 50.3381 13.8545 50.5167 13.4908 50.589C13.1271 50.6614 12.7501 50.6243 12.4075 50.4823C12.0648 50.3404 11.772 50.1001 11.566 49.7917C11.3599 49.4834 11.25 49.1209 11.25 48.75V11.25C11.25 10.8792 11.3599 10.5166 11.566 10.2083C11.772 9.89992 12.0648 9.65959 12.4075 9.51767C12.7501 9.37575 13.1271 9.33862 13.4908 9.41097C13.8545 9.48332 14.1886 9.66191 14.4509 9.92415L30 25.4735V11.25C30 10.8792 30.1099 10.5166 30.316 10.2083C30.522 9.89992 30.8148 9.65959 31.1575 9.51767C31.5001 9.37575 31.8771 9.33862 32.2408 9.41097C32.6045 9.48332 32.9386 9.66191 33.2009 9.92415L51.9509 28.6742C52.125 28.8483 52.2631 29.055 52.3573 29.2825C52.4516 29.5099 52.5001 29.7538 52.5001 30C52.5001 30.2462 52.4516 30.4901 52.3573 30.7176C52.2631 30.9451 52.125 31.1518 51.9509 31.3259Z" fill="#F8F8F8"/>
</svg>
