<svg width="117" height="91" viewBox="0 0 117 91" fill="none" xmlns="http://www.w3.org/2000/svg">
<path d="M86.5602 47.9264L45.9352 76.0514C45.367 76.4448 44.6432 76.7126 43.8551 76.8212C43.067 76.9297 42.2502 76.874 41.5078 76.6611C40.7655 76.4482 40.131 76.0877 39.6846 75.6252C39.2382 75.1627 39 74.6189 39 74.0626V17.8126C39 17.2563 39.2382 16.7125 39.6846 16.25C40.131 15.7875 40.7655 15.427 41.5078 15.2141C42.2502 15.0012 43.067 14.9455 43.8551 15.054C44.6432 15.1626 45.367 15.4305 45.9352 15.8238L86.5602 43.9488C86.9374 44.21 87.2367 44.52 87.4409 44.8613C87.645 45.2025 87.7501 45.5683 87.7501 45.9376C87.7501 46.307 87.645 46.6727 87.4409 47.0139C87.2367 47.3552 86.9374 47.6652 86.5602 47.9264Z" fill="#F8F8F8"/>
</svg>
